STARTFONT 2.1
FONT -integratedmapping-CalLite24-light-r-normal--24-240-75-75-c-80-iso10646-1
SIZE 25 75 75
FONTBOUNDINGBOX 25 21 0 -6
CHARS 96
STARTCHAR U+0020
ENCODING 32
SWIDTH 333 0
DWIDTH 8 0
BBX 7 25 0 -6
BITMAP
00
00
00
00
00
00
00
00
00
00
00
00
00
00
00
00
00
00
00
00
00
00
00
00
00
ENDCHAR
STARTCHAR U+0021
ENCODING 33
SWIDTH 143 0
DWIDTH 4 0
BBX 3 25 0 -6
BITMAP
00
00
00
e0
e0
e0
60
60
60
60
60
60
60
60
60
00
00
00
60
60
00
00
00
00
00
ENDCHAR
STARTCHAR U+0022
ENCODING 34
SWIDTH 333 0
DWIDTH 8 0
BBX 7 25 0 -6
BITMAP
00
00
c6
c6
c6
c6
c6
c6
44
00
00
00
00
00
00
00
00
00
00
00
00
00
00
00
00
ENDCHAR
STARTCHAR U+0023
ENCODING 35
SWIDTH 714 0
DWIDTH 16 0
BBX 15 25 0 -6
BITMAP
0000
0000
0000
0118
0318
0310
0210
3ffe
3ffe
0620
0420
0460
0c60
7cfc
fffc
08c0
18c0
1880
1080
1180
0000
0000
0000
0000
0000
ENDCHAR
STARTCHAR U+0024
ENCODING 36
SWIDTH 571 0
DWIDTH 13 0
BBX 12 25 0 -6
BITMAP
0000
0000
0400
0400
0400
3fe0
7fe0
e420
c400
c400
e400
7e00
3f80
07e0
0460
0470
0470
c4e0
ffc0
7f00
0400
0400
0400
0400
0000
ENDCHAR
STARTCHAR U+0025
ENCODING 37
SWIDTH 1048 0
DWIDTH 23 0
BBX 22 25 0 -6
BITMAP
000000
000000
1c0000
7e0300
e70200
c30600
c30c00
c30c00
c31800
c31800
e730f0
7e33f8
00631c
00630c
00c30c
00c30c
01830c
01830c
0303b8
0301f0
000000
000000
000000
000000
000000
ENDCHAR
STARTCHAR U+0026
ENCODING 38
SWIDTH 762 0
DWIDTH 17 0
BBX 16 25 0 -6
BITMAP
0000
0000
0f00
3fc0
30c0
70e0
70e0
30c0
39c0
1f00
1e0c
330c
61cc
60ec
e078
e038
603c
707e
3fe7
1f83
0000
0000
0000
0000
0000
ENDCHAR
STARTCHAR U+0027
ENCODING 39
SWIDTH 95 0
DWIDTH 3 0
BBX 2 25 0 -6
BITMAP
00
00
c0
c0
c0
c0
c0
c0
40
00
00
00
00
00
00
00
00
00
00
00
00
00
00
00
00
ENDCHAR
STARTCHAR U+0028
ENCODING 40
SWIDTH 333 0
DWIDTH 8 0
BBX 7 25 0 -6
BITMAP
00
00
0e
1c
18
30
30
60
60
60
e0
c0
c0
c0
c0
c0
e0
60
60
70
30
38
18
0c
00
ENDCHAR
STARTCHAR U+0029
ENCODING 41
SWIDTH 333 0
DWIDTH 8 0
BBX 7 25 0 -6
BITMAP
00
00
e0
70
30
18
18
0c
0c
0c
0e
06
06
06
06
0e
0c
0c
0c
1c
18
38
30
60
00
ENDCHAR
STARTCHAR U+002a
ENCODING 42
SWIDTH 524 0
DWIDTH 12 0
BBX 11 25 0 -6
BITMAP
0000
0000
0400
0400
c460
75c0
1f00
0e00
3f80
e4e0
0420
0400
0400
0000
0000
0000
0000
0000
0000
0000
0000
0000
0000
0000
0000
ENDCHAR
STARTCHAR U+002b
ENCODING 43
SWIDTH 714 0
DWIDTH 16 0
BBX 15 25 0 -6
BITMAP
0000
0000
0000
0000
0000
0180
0180
0180
0180
0180
0180
fffe
fffe
0180
0180
0180
0180
0180
0180
0180
0000
0000
0000
0000
0000
ENDCHAR
STARTCHAR U+002c
ENCODING 44
SWIDTH 190 0
DWIDTH 5 0
BBX 4 25 0 -6
BITMAP
00
00
00
00
00
00
00
00
00
00
00
00
00
00
00
00
00
30
70
70
60
e0
c0
c0
00
ENDCHAR
STARTCHAR U+002d
ENCODING 45
SWIDTH 333 0
DWIDTH 8 0
BBX 7 25 0 -6
BITMAP
00
00
00
00
00
00
00
00
00
00
00
fe
fe
00
00
00
00
00
00
00
00
00
00
00
00
ENDCHAR
STARTCHAR U+002e
ENCODING 46
SWIDTH 143 0
DWIDTH 4 0
BBX 3 25 0 -6
BITMAP
00
00
00
00
00
00
00
00
00
00
00
00
00
00
00
00
00
e0
e0
e0
00
00
00
00
00
ENDCHAR
STARTCHAR U+002f
ENCODING 47
SWIDTH 476 0
DWIDTH 11 0
BBX 10 25 0 -6
BITMAP
0000
0000
00c0
0180
0180
0180
0300
0300
0600
0600
0600
0c00
0c00
0c00
1800
1800
3000
3000
3000
6000
6000
c000
c000
8000
0000
ENDCHAR
STARTCHAR U+0030
ENCODING 48
SWIDTH 571 0
DWIDTH 13 0
BBX 12 25 0 -6
BITMAP
0000
0000
0e00
3f80
71c0
60e0
e060
c070
c070
c030
c030
c030
c030
c070
c060
c060
e060
60c0
7fc0
1f80
0000
0000
0000
0000
0000
ENDCHAR
STARTCHAR U+0031
ENCODING 49
SWIDTH 476 0
DWIDTH 11 0
BBX 10 25 0 -6
BITMAP
0000
0000
0400
0c00
1c00
7c00
7c00
0c00
0c00
0c00
0c00
0c00
0c00
0c00
0c00
0c00
0c00
0c00
ffc0
ffc0
0000
0000
0000
0000
0000
ENDCHAR
STARTCHAR U+0032
ENCODING 50
SWIDTH 571 0
DWIDTH 13 0
BBX 12 25 0 -6
BITMAP
0000
0000
1e00
7f80
63c0
00e0
00e0
0060
00e0
00c0
01c0
0380
0700
0e00
1c00
3800
7000
e000
fff0
fff0
0000
0000
0000
0000
0000
ENDCHAR
STARTCHAR U+0033
ENCODING 51
SWIDTH 524 0
DWIDTH 12 0
BBX 11 25 0 -6
BITMAP
0000
0000
1f00
7fc0
71e0
00e0
0060
0060
00c0
0780
0f00
07c0
00e0
0060
0060
0060
0060
c0e0
ffc0
7f80
0000
0000
0000
0000
0000
ENDCHAR
STARTCHAR U+0034
ENCODING 52
SWIDTH 619 0
DWIDTH 14 0
BBX 13 25 0 -6
BITMAP
0000
0000
0000
00e0
01e0
03e0
06e0
0ce0
1ce0
38e0
30e0
60e0
c0e0
fff8
fff8
00e0
00e0
00e0
00e0
00e0
0000
0000
0000
0000
0000
ENDCHAR
STARTCHAR U+0035
ENCODING 53
SWIDTH 571 0
DWIDTH 13 0
BBX 12 25 0 -6
BITMAP
0000
0000
0000
7fe0
7fe0
6000
6000
6000
6000
7f00
7fc0
01e0
0060
0070
0070
0070
0060
c0e0
ffc0
7f80
0000
0000
0000
0000
0000
ENDCHAR
STARTCHAR U+0036
ENCODING 54
SWIDTH 571 0
DWIDTH 13 0
BBX 12 25 0 -6
BITMAP
0000
0000
01c0
0fc0
3c00
7000
6000
e000
c000
df80
ffc0
e0e0
c070
c070
c030
c070
e070
70e0
3fc0
1f80
0000
0000
0000
0000
0000
ENDCHAR
STARTCHAR U+0037
ENCODING 55
SWIDTH 571 0
DWIDTH 13 0
BBX 12 25 0 -6
BITMAP
0000
0000
0000
fff0
fff0
0070
0060
00c0
00c0
0180
0180
0300
0700
0600
0e00
0c00
1c00
1800
3800
3000
0000
0000
0000
0000
0000
ENDCHAR
STARTCHAR U+0038
ENCODING 56
SWIDTH 571 0
DWIDTH 13 0
BBX 12 25 0 -6
BITMAP
0000
0000
1f00
3fc0
70e0
e060
c060
e060
e060
78c0
3f80
3780
e1e0
c060
c070
c070
c070
e060
79c0
3f80
0000
0000
0000
0000
0000
ENDCHAR
STARTCHAR U+0039
ENCODING 57
SWIDTH 619 0
DWIDTH 14 0
BBX 13 25 0 -6
BITMAP
0000
0000
0700
1fc0
38e0
6070
6038
e038
e038
6038
6038
7878
3ff0
0f30
0030
0070
0060
01e0
3f80
3f00
0000
0000
0000
0000
0000
ENDCHAR
STARTCHAR U+003a
ENCODING 58
SWIDTH 143 0
DWIDTH 4 0
BBX 3 25 0 -6
BITMAP
00
00
00
00
00
00
00
e0
e0
e0
00
00
00
00
00
00
00
e0
e0
e0
00
00
00
00
00
ENDCHAR
STARTCHAR U+003b
ENCODING 59
SWIDTH 190 0
DWIDTH 5 0
BBX 4 25 0 -6
BITMAP
00
00
00
00
00
00
00
70
70
70
00
00
00
00
00
00
00
30
70
60
60
e0
c0
c0
00
ENDCHAR
STARTCHAR U+003c
ENCODING 60
SWIDTH 619 0
DWIDTH 14 0
BBX 13 25 0 -6
BITMAP
0000
0000
0000
0000
0000
0000
0008
0078
01f0
0780
1e00
f800
e000
7800
1f00
07c0
00f0
0038
0008
0000
0000
0000
0000
0000
0000
ENDCHAR
STARTCHAR U+003d
ENCODING 61
SWIDTH 667 0
DWIDTH 15 0
BBX 14 25 0 -6
BITMAP
0000
0000
0000
0000
0000
0000
0000
0000
0000
fffc
fffc
0000
0000
0000
fffc
fffc
0000
0000
0000
0000
0000
0000
0000
0000
0000
ENDCHAR
STARTCHAR U+003e
ENCODING 62
SWIDTH 667 0
DWIDTH 15 0
BBX 14 25 0 -6
BITMAP
0000
0000
0000
0000
0000
0000
c000
f000
3e00
0f80
01e0
0078
003c
00f8
03c0
0f00
7c00
f000
8000
0000
0000
0000
0000
0000
0000
ENDCHAR
STARTCHAR U+003f
ENCODING 63
SWIDTH 476 0
DWIDTH 11 0
BBX 10 25 0 -6
BITMAP
0000
0000
3c00
ff00
c780
01c0
01c0
01c0
0180
0380
0700
1e00
1800
1800
1800
0000
0000
0000
1800
1800
0000
0000
0000
0000
0000
ENDCHAR
STARTCHAR U+0040
ENCODING 64
SWIDTH 952 0
DWIDTH 21 0
BBX 20 25 0 -6
BITMAP
000000
000000
007000
07fe00
0e0380
1801c0
3000c0
61fc60
63fc20
430420
c60430
c60430
c60430
c60430
c60430
470c20
63fe60
61f7c0
300000
180000
0e0000
07fc00
007800
000000
000000
ENDCHAR
STARTCHAR U+0041
ENCODING 65
SWIDTH 762 0
DWIDTH 17 0
BBX 16 25 0 -6
BITMAP
0000
0000
0000
03c0
03c0
03e0
0660
0670
0e30
0c30
0c38
1c18
1818
1ffc
3ffc
300c
300e
7006
6007
e007
0000
0000
0000
0000
0000
ENDCHAR
STARTCHAR U+0042
ENCODING 66
SWIDTH 619 0
DWIDTH 14 0
BBX 13 25 0 -6
BITMAP
0000
0000
0000
ffc0
ffe0
e070
e030
e070
e060
e1c0
ffe0
fff0
e038
e018
e018
e018
e018
e078
fff0
ffc0
0000
0000
0000
0000
0000
ENDCHAR
STARTCHAR U+0043
ENCODING 67
SWIDTH 714 0
DWIDTH 16 0
BBX 15 25 0 -6
BITMAP
0000
0000
01e0
0ffc
1e3e
3806
3000
7000
6000
e000
c000
c000
e000
6000
6000
7000
3800
3c0e
1ffe
07f8
0000
0000
0000
0000
0000
ENDCHAR
STARTCHAR U+0044
ENCODING 68
SWIDTH 714 0
DWIDTH 16 0
BBX 15 25 0 -6
BITMAP
0000
0000
0000
ffc0
fff0
e038
e01c
e00c
e00e
e00e
e006
e006
e00e
e00e
e00c
e01c
e038
e0f8
ffe0
ff80
0000
0000
0000
0000
0000
ENDCHAR
STARTCHAR U+0045
ENCODING 69
SWIDTH 571 0
DWIDTH 13 0
BBX 12 25 0 -6
BITMAP
0000
0000
0000
fff0
fff0
e000
e000
e000
e000
fff0
fff0
e000
e000
e000
e000
e000
e000
e000
fff0
fff0
0000
0000
0000
0000
0000
ENDCHAR
STARTCHAR U+0046
ENCODING 70
SWIDTH 524 0
DWIDTH 12 0
BBX 11 25 0 -6
BITMAP
0000
0000
0000
ffe0
ffe0
e000
e000
e000
e000
e000
ffc0
ffc0
e000
e000
e000
e000
e000
e000
e000
e000
0000
0000
0000
0000
0000
ENDCHAR
STARTCHAR U+0047
ENCODING 71
SWIDTH 762 0
DWIDTH 17 0
BBX 16 25 0 -6
BITMAP
0000
0000
00f0
07fe
1e0f
3803
3000
7000
6000
e000
c000
c07f
e07f
6007
6003
7003
3803
3c07
0fff
07fc
0000
0000
0000
0000
0000
ENDCHAR
STARTCHAR U+0048
ENCODING 72
SWIDTH 667 0
DWIDTH 15 0
BBX 14 25 0 -6
BITMAP
0000
0000
0000
e01c
e01c
e01c
e01c
e01c
e01c
fffc
fffc
e01c
e01c
e01c
e01c
e01c
e01c
e01c
e01c
e01c
0000
0000
0000
0000
0000
ENDCHAR
STARTCHAR U+0049
ENCODING 73
SWIDTH 286 0
DWIDTH 7 0
BBX 6 25 0 -6
BITMAP
00
00
00
fc
30
30
30
30
30
30
30
30
30
30
30
30
30
30
fc
fc
00
00
00
00
00
ENDCHAR
STARTCHAR U+004a
ENCODING 74
SWIDTH 381 0
DWIDTH 9 0
BBX 8 25 0 -6
BITMAP
00
00
00
3f
07
07
07
07
07
07
07
07
07
07
07
07
07
06
fe
f8
00
00
00
00
00
ENDCHAR
STARTCHAR U+004b
ENCODING 75
SWIDTH 667 0
DWIDTH 15 0
BBX 14 25 0 -6
BITMAP
0000
0000
0000
e038
e070
e0e0
e1c0
e380
e700
ee00
fe00
fe00
ff00
e380
e3c0
e1c0
e0e0
e070
e038
e01c
0000
0000
0000
0000
0000
ENDCHAR
STARTCHAR U+004c
ENCODING 76
SWIDTH 524 0
DWIDTH 12 0
BBX 11 25 0 -6
BITMAP
0000
0000
0000
e000
e000
e000
e000
e000
e000
e000
e000
e000
e000
e000
e000
e000
e000
e000
ffe0
ffe0
0000
0000
0000
0000
0000
ENDCHAR
STARTCHAR U+004d
ENCODING 77
SWIDTH 762 0
DWIDTH 17 0
BBX 16 25 0 -6
BITMAP
0000
0000
0000
f00f
f00f
f81f
f81b
ec33
ec33
e663
e663
e343
e3c3
e1c3
e183
e003
e003
e003
e003
e003
0000
0000
0000
0000
0000
ENDCHAR
STARTCHAR U+004e
ENCODING 78
SWIDTH 667 0
DWIDTH 15 0
BBX 14 25 0 -6
BITMAP
0000
0000
0000
f01c
f81c
f81c
ec1c
ee1c
e61c
e71c
e31c
e39c
e19c
e1dc
e0dc
e0fc
e07c
e07c
e03c
e01c
0000
0000
0000
0000
0000
ENDCHAR
STARTCHAR U+004f
ENCODING 79
SWIDTH 810 0
DWIDTH 18 0
BBX 17 25 0 -6
BITMAP
000000
000000
01c000
0ff800
1e3c00
380e00
700600
700700
600300
e00380
c00180
c00180
e00380
600380
600300
700700
300600
3c1e00
1ffc00
07f000
000000
000000
000000
000000
000000
ENDCHAR
STARTCHAR U+0050
ENCODING 80
SWIDTH 571 0
DWIDTH 13 0
BBX 12 25 0 -6
BITMAP
0000
0000
0000
ff80
ffc0
e0e0
e070
e030
e030
e070
e0e0
e7c0
ff80
e000
e000
e000
e000
e000
e000
e000
0000
0000
0000
0000
0000
ENDCHAR
STARTCHAR U+0051
ENCODING 81
SWIDTH 810 0
DWIDTH 18 0
BBX 17 25 0 -6
BITMAP
000000
000000
01c000
0ff800
1e3c00
380e00
700600
700700
600300
e00380
c00380
c00180
e00180
600300
600300
700700
300600
3c1e00
1ffc00
07f000
007000
003000
003d80
001f80
000000
ENDCHAR
STARTCHAR U+0052
ENCODING 82
SWIDTH 667 0
DWIDTH 15 0
BBX 14 25 0 -6
BITMAP
0000
0000
0000
ffc0
ffe0
e060
e070
e030
e070
e060
e0e0
ff80
ff00
e380
e1c0
e0e0
e070
e038
e018
e01c
0000
0000
0000
0000
0000
ENDCHAR
STARTCHAR U+0053
ENCODING 83
SWIDTH 619 0
DWIDTH 14 0
BBX 13 25 0 -6
BITMAP
0000
0000
0f80
3ff0
78f0
e000
c000
c000
e000
f000
7f80
1fe0
01f0
0038
0038
0018
0038
c070
ffe0
7fc0
0000
0000
0000
0000
0000
ENDCHAR
STARTCHAR U+0054
ENCODING 84
SWIDTH 714 0
DWIDTH 16 0
BBX 15 25 0 -6
BITMAP
0000
0000
0000
fffe
fffe
0380
0380
0380
0380
0380
0380
0380
0380
0380
0380
0380
0380
0380
0380
0380
0000
0000
0000
0000
0000
ENDCHAR
STARTCHAR U+0055
ENCODING 85
SWIDTH 619 0
DWIDTH 14 0
BBX 13 25 0 -6
BITMAP
0000
0000
0000
c018
c018
c018
c018
c018
c018
c018
c018
c018
c018
c018
e018
e018
6038
7030
3ff0
1fc0
0000
0000
0000
0000
0000
ENDCHAR
STARTCHAR U+0056
ENCODING 86
SWIDTH 714 0
DWIDTH 16 0
BBX 15 25 0 -6
BITMAP
0000
0000
0000
c00e
c00c
e00c
601c
7018
7018
3038
3830
1830
1860
1c60
0ce0
0cc0
0ec0
07c0
0780
0780
0000
0000
0000
0000
0000
ENDCHAR
STARTCHAR U+0057
ENCODING 87
SWIDTH 1000 0
DWIDTH 22 0
BBX 21 25 0 -6
BITMAP
000000
000000
000000
e03018
607818
607818
607838
705830
30cc30
30cc30
30cc70
388c60
198660
198660
1986e0
0d06c0
0f03c0
0f03c0
0f03c0
060380
000000
000000
000000
000000
000000
ENDCHAR
STARTCHAR U+0058
ENCODING 88
SWIDTH 667 0
DWIDTH 15 0
BBX 14 25 0 -6
BITMAP
0000
0000
0000
601c
701c
3838
1870
1c60
0ec0
07c0
0780
0380
07c0
0ec0
0ce0
1870
3830
3038
601c
e00c
0000
0000
0000
0000
0000
ENDCHAR
STARTCHAR U+0059
ENCODING 89
SWIDTH 619 0
DWIDTH 14 0
BBX 13 25 0 -6
BITMAP
0000
0000
0000
c018
e030
6070
7060
38e0
18c0
1d80
0f80
0700
0700
0700
0700
0700
0700
0700
0700
0700
0000
0000
0000
0000
0000
ENDCHAR
STARTCHAR U+005a
ENCODING 90
SWIDTH 667 0
DWIDTH 15 0
BBX 14 25 0 -6
BITMAP
0000
0000
0000
7ffc
7ffc
0038
0030
0070
00e0
01c0
0380
0300
0600
0e00
1c00
3800
3000
6000
fffc
fffc
0000
0000
0000
0000
0000
ENDCHAR
STARTCHAR U+005b
ENCODING 91
SWIDTH 286 0
DWIDTH 7 0
BBX 6 25 0 -6
BITMAP
00
00
fc
c0
c0
c0
c0
c0
c0
c0
c0
c0
c0
c0
c0
c0
c0
c0
c0
c0
c0
c0
c0
fc
00
ENDCHAR
STARTCHAR U+005c
ENCODING 92
SWIDTH 476 0
DWIDTH 11 0
BBX 10 25 0 -6
BITMAP
0000
0000
c000
e000
6000
6000
3000
3000
3000
1800
1800
0c00
0c00
0c00
0600
0600
0300
0300
0300
0180
0180
0180
00c0
0040
0000
ENDCHAR
STARTCHAR U+005d
ENCODING 93
SWIDTH 286 0
DWIDTH 7 0
BBX 6 25 0 -6
BITMAP
00
00
fc
0c
0c
0c
0c
0c
0c
0c
0c
0c
0c
0c
0c
0c
0c
0c
0c
0c
0c
0c
0c
fc
00
ENDCHAR
STARTCHAR U+005e
ENCODING 94
SWIDTH 667 0
DWIDTH 15 0
BBX 14 25 0 -6
BITMAP
0000
0000
0000
0700
0780
0dc0
18c0
3860
3030
6038
e018
c00c
0000
0000
0000
0000
0000
0000
0000
0000
0000
0000
0000
0000
0000
ENDCHAR
STARTCHAR U+005f
ENCODING 95
SWIDTH 714 0
DWIDTH 16 0
BBX 15 25 0 -6
BITMAP
0000
0000
0000
0000
0000
0000
0000
0000
0000
0000
0000
0000
0000
0000
0000
0000
0000
0000
0000
0000
0000
0000
fffe
fffe
0000
ENDCHAR
STARTCHAR U+0060
ENCODING 96
SWIDTH 190 0
DWIDTH 5 0
BBX 4 25 0 -6
BITMAP
c0
c0
60
60
30
00
00
00
00
00
00
00
00
00
00
00
00
00
00
00
00
00
00
00
00
ENDCHAR
STARTCHAR U+0061
ENCODING 97
SWIDTH 524 0
DWIDTH 12 0
BBX 11 25 0 -6
BITMAP
0000
0000
0000
0000
0000
0000
0000
7fc0
7fe0
0060
0060
01e0
1fe0
7c60
6060
e060
e060
e0e0
7fe0
3f60
0000
0000
0000
0000
0000
ENDCHAR
STARTCHAR U+0062
ENCODING 98
SWIDTH 571 0
DWIDTH 13 0
BBX 12 25 0 -6
BITMAP
0000
0000
c000
c000
c000
c000
c000
cf80
ffc0
e0e0
c060
c070
c030
c030
c030
c070
c060
e0e0
ffc0
ff80
0000
0000
0000
0000
0000
ENDCHAR
STARTCHAR U+0063
ENCODING 99
SWIDTH 524 0
DWIDTH 12 0
BBX 11 25 0 -6
BITMAP
0000
0000
0000
0000
0000
0000
0000
1fc0
3fe0
7000
6000
e000
c000
c000
c000
e000
6000
7000
3fe0
1fc0
0000
0000
0000
0000
0000
ENDCHAR
STARTCHAR U+0064
ENCODING 100
SWIDTH 571 0
DWIDTH 13 0
BBX 12 25 0 -6
BITMAP
0000
0000
0030
0030
0030
0030
0f30
1ff0
39f0
7070
6030
e030
c030
c030
c030
e030
6030
70f0
3ff0
1f30
0000
0000
0000
0000
0000
ENDCHAR
STARTCHAR U+0065
ENCODING 101
SWIDTH 571 0
DWIDTH 13 0
BBX 12 25 0 -6
BITMAP
0000
0000
0000
0000
0000
0000
0700
1fc0
3de0
7060
6030
e030
fff0
fff0
e000
6000
6000
7030
3ff0
0fe0
0000
0000
0000
0000
0000
ENDCHAR
STARTCHAR U+0066
ENCODING 102
SWIDTH 333 0
DWIDTH 8 0
BBX 7 25 0 -6
BITMAP
00
00
1e
3e
30
70
60
fe
fe
60
60
60
60
60
60
60
60
60
60
60
00
00
00
00
00
ENDCHAR
STARTCHAR U+0067
ENCODING 103
SWIDTH 571 0
DWIDTH 13 0
BBX 12 25 0 -6
BITMAP
0000
0000
0000
0000
0000
0000
0000
1fc0
3fe0
7070
6030
e030
c030
c030
e030
6030
6070
79f0
3ff0
0e30
0060
0060
20e0
3fc0
0000
ENDCHAR
STARTCHAR U+0068
ENCODING 104
SWIDTH 524 0
DWIDTH 12 0
BBX 11 25 0 -6
BITMAP
0000
0000
c000
c000
c000
c000
c000
cfc0
ffc0
f0e0
c060
c060
c060
c060
c060
c060
c060
c060
c060
c060
0000
0000
0000
0000
0000
ENDCHAR
STARTCHAR U+0069
ENCODING 105
SWIDTH 143 0
DWIDTH 4 0
BBX 3 25 0 -6
BITMAP
00
00
c0
c0
c0
00
00
c0
c0
c0
c0
c0
c0
c0
c0
c0
c0
c0
c0
c0
00
00
00
00
00
ENDCHAR
STARTCHAR U+006a
ENCODING 106
SWIDTH 286 0
DWIDTH 7 0
BBX 6 25 0 -6
BITMAP
00
00
0c
0c
0c
00
00
7c
7c
0c
0c
0c
0c
0c
0c
0c
0c
0c
0c
0c
0c
0c
1c
f8
00
ENDCHAR
STARTCHAR U+006b
ENCODING 107
SWIDTH 571 0
DWIDTH 13 0
BBX 12 25 0 -6
BITMAP
0000
0000
c000
c000
c000
c000
c000
c0e0
c1c0
c380
c700
ce00
dc00
fc00
fe00
e700
c380
c1c0
c0e0
c070
0000
0000
0000
0000
0000
ENDCHAR
STARTCHAR U+006c
ENCODING 108
SWIDTH 95 0
DWIDTH 3 0
BBX 2 25 0 -6
BITMAP
00
00
c0
c0
c0
c0
c0
c0
c0
c0
c0
c0
c0
c0
c0
c0
c0
c0
c0
c0
00
00
00
00
00
ENDCHAR
STARTCHAR U+006d
ENCODING 109
SWIDTH 905 0
DWIDTH 20 0
BBX 19 25 0 -6
BITMAP
000000
000000
000000
000000
000000
000000
000000
cf8fc0
ffffe0
f0f0e0
c0e060
c06060
c06060
c06060
c06060
c06060
c06060
c06060
c06060
c06060
000000
000000
000000
000000
000000
ENDCHAR
STARTCHAR U+006e
ENCODING 110
SWIDTH 524 0
DWIDTH 12 0
BBX 11 25 0 -6
BITMAP
0000
0000
0000
0000
0000
0000
0000
cfc0
ffc0
f0e0
c060
c060
c060
c060
c060
c060
c060
c060
c060
c060
0000
0000
0000
0000
0000
ENDCHAR
STARTCHAR U+006f
ENCODING 111
SWIDTH 571 0
DWIDTH 13 0
BBX 12 25 0 -6
BITMAP
0000
0000
0000
0000
0000
0000
0f00
1f80
39e0
7060
6070
e030
c030
c030
c030
e030
6070
7060
39e0
1f80
0f00
0000
0000
0000
0000
ENDCHAR
STARTCHAR U+0070
ENCODING 112
SWIDTH 571 0
DWIDTH 13 0
BBX 12 25 0 -6
BITMAP
0000
0000
0000
0000
0000
0000
0000
cf80
ffc0
e0e0
c060
c070
c030
c030
c030
c060
c060
e0c0
ffc0
ff00
c000
c000
c000
c000
0000
ENDCHAR
STARTCHAR U+0071
ENCODING 113
SWIDTH 571 0
DWIDTH 13 0
BBX 12 25 0 -6
BITMAP
0000
0000
0000
0000
0000
0000
0000
1ff0
3ff0
7070
6030
e030
c030
c030
e030
6030
6070
70f0
3ff0
1f30
0030
0030
0030
0030
0000
ENDCHAR
STARTCHAR U+0072
ENCODING 114
SWIDTH 381 0
DWIDTH 9 0
BBX 8 25 0 -6
BITMAP
00
00
00
00
00
00
00
cf
ff
f0
e0
c0
c0
c0
c0
c0
c0
c0
c0
c0
00
00
00
00
00
ENDCHAR
STARTCHAR U+0073
ENCODING 115
SWIDTH 476 0
DWIDTH 11 0
BBX 10 25 0 -6
BITMAP
0000
0000
0000
0000
0000
0000
0000
3fc0
7fc0
6040
6000
6000
7c00
3f80
07c0
00c0
00c0
c0c0
ffc0
7f00
0000
0000
0000
0000
0000
ENDCHAR
STARTCHAR U+0074
ENCODING 116
SWIDTH 381 0
DWIDTH 9 0
BBX 8 25 0 -6
BITMAP
00
00
00
60
60
60
60
ff
ff
60
60
60
60
60
60
60
70
70
3f
1f
00
00
00
00
00
ENDCHAR
STARTCHAR U+0075
ENCODING 117
SWIDTH 524 0
DWIDTH 12 0
BBX 11 25 0 -6
BITMAP
0000
0000
0000
0000
0000
0000
0000
c060
c060
c060
c060
c060
c060
c060
c060
c060
e060
e1e0
7fe0
3e60
0000
0000
0000
0000
0000
ENDCHAR
STARTCHAR U+0076
ENCODING 118
SWIDTH 571 0
DWIDTH 13 0
BBX 12 25 0 -6
BITMAP
0000
0000
0000
0000
0000
0000
0000
c030
e030
6060
6060
30e0
30c0
38c0
1980
1980
0f80
0f00
0f00
0600
0000
0000
0000
0000
0000
ENDCHAR
STARTCHAR U+0077
ENCODING 119
SWIDTH 810 0
DWIDTH 18 0
BBX 17 25 0 -6
BITMAP
000000
000000
000000
000000
000000
000000
000000
c0c180
e1c180
61e180
61e180
636300
733300
333300
323300
361e00
1e1e00
1c1e00
1c0e00
1c0c00
000000
000000
000000
000000
000000
ENDCHAR
STARTCHAR U+0078
ENCODING 120
SWIDTH 571 0
DWIDTH 13 0
BBX 12 25 0 -6
BITMAP
0000
0000
0000
0000
0000
0000
0000
e070
7060
30c0
19c0
1f80
0f00
0700
0f00
1f80
39c0
30e0
6060
e070
0000
0000
0000
0000
0000
ENDCHAR
STARTCHAR U+0079
ENCODING 121
SWIDTH 571 0
DWIDTH 13 0
BBX 12 25 0 -6
BITMAP
0000
0000
0000
0000
0000
0000
0000
c030
e030
6060
7060
30e0
30c0
39c0
1980
1d80
0f00
0f00
0700
0600
0e00
0c00
0c00
1800
0000
ENDCHAR
STARTCHAR U+007a
ENCODING 122
SWIDTH 524 0
DWIDTH 12 0
BBX 11 25 0 -6
BITMAP
0000
0000
0000
0000
0000
0000
0000
ffc0
ffc0
01c0
0380
0300
0600
0c00
1c00
3800
3000
6000
ffe0
ffe0
0000
0000
0000
0000
0000
ENDCHAR
STARTCHAR U+007b
ENCODING 123
SWIDTH 524 0
DWIDTH 12 0
BBX 11 25 0 -6
BITMAP
0000
0000
01e0
0780
0600
0600
0600
0600
0600
0e00
0c00
1800
f000
f000
1800
0c00
0c00
0e00
0600
0600
0600
0600
0700
03e0
0000
ENDCHAR
STARTCHAR U+007c
ENCODING 124
SWIDTH 95 0
DWIDTH 3 0
BBX 2 25 0 -6
BITMAP
00
00
c0
c0
c0
c0
c0
c0
c0
c0
c0
c0
c0
c0
c0
c0
c0
c0
c0
c0
c0
c0
c0
c0
00
ENDCHAR
STARTCHAR U+007d
ENCODING 125
SWIDTH 524 0
DWIDTH 12 0
BBX 11 25 0 -6
BITMAP
0000
0000
f800
3c00
0c00
0e00
0600
0600
0600
0600
0600
0300
01e0
00e0
0380
0600
0600
0600
0600
0600
0e00
0c00
1c00
f800
0000
ENDCHAR
STARTCHAR U+007e
ENCODING 126
SWIDTH 714 0
DWIDTH 16 0
BBX 15 25 0 -6
BITMAP
0000
0000
0000
0000
0000
0000
0000
0000
0000
1c06
3e06
6306
6186
c0fc
c078
0000
0000
0000
0000
0000
0000
0000
0000
0000
0000
ENDCHAR
STARTCHAR U+007f
ENCODING 127
SWIDTH 0 0
DWIDTH 1 0
BBX 0 25 0 -6
BITMAP
0
0
0
0
0
0
0
0
0
0
0
0
0
0
0
0
0
0
0
0
0
0
0
0
0
ENDCHAR
ENDFONT
